<?xml version="1.0" standalone="no"?>
<!DOCTYPE svg PUBLIC "-//W3C//DTD SVG 20010904//EN"
 "http://www.w3.org/TR/2001/REC-SVG-20010904/DTD/svg10.dtd">
<svg version="1.0" xmlns="http://www.w3.org/2000/svg"
 width="1800.000000pt" height="1257.000000pt" viewBox="0 0 1800.000000 1257.000000"
 preserveAspectRatio="xMidYMid meet">
<g transform="translate(0.000000,1257.000000) scale(0.100000,-0.100000)"
fill="#000000" stroke="none">
<path d="M7330 12533 c-127 -16 -206 -44 -325 -116 -119 -72 -249 -216 -309
-342 -10 -22 -23 -48 -28 -59 -15 -28 -36 -111 -53 -201 -22 -118 -22 -9738 0
-9885 18 -119 34 -172 86 -274 95 -190 249 -327 474 -421 17 -7 62 -20 101
-29 65 -14 239 -16 1714 -16 1482 0 1648 2 1708 16 88 22 132 38 217 81 94 48
151 91 223 167 133 142 195 267 227 456 22 129 22 9805 0 9925 -40 222 -160
415 -335 544 -36 26 -85 58 -110 71 -25 12 -53 27 -64 32 -44 23 -138 46 -210
53 -140 13 -3209 11 -3316 -2z"/>
<path d="M705 9539 c-213 -47 -361 -140 -512 -322 -13 -15 -23 -29 -23 -32 0
-2 -13 -23 -28 -47 -41 -63 -83 -170 -106 -274 -15 -65 -16 -442 -16 -4089 0
-3988 0 -4018 20 -4100 41 -168 110 -294 224 -410 150 -150 310 -232 490 -250
98 -10 2642 -13 3156 -5 402 7 428 9 485 30 324 118 519 336 589 660 15 68 16
422 16 4080 0 3658 -1 4012 -16 4080 -31 143 -93 282 -164 365 -73 85 -121
132 -175 169 -70 47 -94 63 -115 71 -8 4 -23 11 -32 16 -37 19 -106 41 -193
59 -87 19 -144 20 -1805 18 -1605 -1 -1720 -2 -1795 -19z"/>
<path d="M13675 9540 c-161 -37 -245 -76 -367 -170 -145 -111 -242 -264 -309
-490 -11 -37 -14 -740 -16 -4080 -3 -3721 -2 -4040 13 -4105 44 -186 110 -310
229 -430 149 -150 308 -232 490 -250 93 -10 3409 -10 3505 0 275 27 561 240
664 495 10 25 23 56 28 70 6 14 19 65 29 114 18 86 19 210 19 4105 0 3934 -1
4018 -20 4091 -36 142 -88 248 -172 351 -132 161 -286 253 -502 300 -86 18
-146 19 -1800 18 -1618 -1 -1715 -2 -1791 -19z"/>
</g>
</svg>
